<?xml version="1.0" encoding="UTF-8" standalone="no"?>
<svg
   viewBox="0 0 959.04224 703.66669"
   version="1.1"
   id="svg1"
   sodipodi:docname="sparkle3.svg"
   width="959.04224"
   height="703.66669"
   inkscape:version="1.3 (0e150ed6c4, 2023-07-21)"
   xmlns:inkscape="http://www.inkscape.org/namespaces/inkscape"
   xmlns:sodipodi="http://sodipodi.sourceforge.net/DTD/sodipodi-0.dtd"
   xmlns="http://www.w3.org/2000/svg"
   xmlns:svg="http://www.w3.org/2000/svg">
  <defs
     id="defs1" />
  <sodipodi:namedview
     id="namedview1"
     pagecolor="#ffffff"
     bordercolor="#000000"
     borderopacity="0.25"
     inkscape:showpageshadow="2"
     inkscape:pageopacity="0.0"
     inkscape:pagecheckerboard="0"
     inkscape:deskcolor="#d1d1d1"
     showgrid="false"
     showguides="true"
     inkscape:lockguides="false"
     inkscape:zoom="0.50683594"
     inkscape:cx="498.18882"
     inkscape:cy="367.96917"
     inkscape:window-width="1366"
     inkscape:window-height="715"
     inkscape:window-x="-8"
     inkscape:window-y="-8"
     inkscape:window-maximized="1"
     inkscape:current-layer="svg1">
    <sodipodi:guide
       position="479.6262,-41.001927"
       orientation="-1,0"
       id="guide1"
       inkscape:locked="false"
       inkscape:label=""
       inkscape:color="rgb(0,134,229)" />
    <sodipodi:guide
       position="779.03275,288"
       orientation="0,1"
       id="guide2"
       inkscape:locked="false"
       inkscape:label=""
       inkscape:color="rgb(0,134,229)" />
    <sodipodi:guide
       position="735.6262,174.28806"
       orientation="-1,0"
       id="guide3"
       inkscape:locked="false"
       inkscape:label=""
       inkscape:color="rgb(0,134,229)" />
    <sodipodi:guide
       position="223.6262,118.48249"
       orientation="-1,0"
       id="guide4"
       inkscape:locked="false"
       inkscape:label=""
       inkscape:color="rgb(0,134,229)" />
    <sodipodi:guide
       position="629.61176,32"
       orientation="0,1"
       id="guide5"
       inkscape:locked="false"
       inkscape:label=""
       inkscape:color="rgb(0,134,229)" />
  </sodipodi:namedview>
  <!--! Font Awesome Pro 6.4.2 by @fontawesome - https://fontawesome.com License - https://fontawesome.com/license (Commercial License) Copyright 2023 Fonticons, Inc. -->
  <path
     d="m 501.4262,13.9 c -3.9,-8.5 -12.4,-13.9 -21.8,-13.9 -9.4,0 -17.9,5.4 -21.8,13.9 l -59.5,128.8 -128.8,59.5 c -8.5,3.9 -13.9,12.4 -13.9,21.8 0,9.4 5.4,17.9 13.9,21.8 l 128.8,59.5 59.5,128.8 c 3.9,8.5 12.4,13.9 21.8,13.9 9.4,0 17.9,-5.4 21.8,-13.9 l 59.5,-128.8 128.8,-59.5 c 8.5,-3.9 13.9,-12.4 13.9,-21.8 0,-9.4 -5.4,-17.9 -13.9,-21.8 l -128.8,-59.5 z"
     id="path1" />
  <path
     d="m 245.8,269.56667 c -3.9,-8.5 -12.4,-13.9 -21.8,-13.9 -9.4,0 -17.9,5.4 -21.8,13.9 l -59.5,128.8 -128.8,59.5 c -8.5,3.9 -13.9,12.4 -13.9,21.8 0,9.4 5.4,17.9 13.9,21.8 l 128.8,59.5 59.5,128.8 c 3.9,8.5 12.4,13.9 21.8,13.9 9.4,0 17.9,-5.4 21.8,-13.9 l 59.5,-128.8 128.8,-59.5 c 8.5,-3.9 13.9,-12.4 13.9,-21.8 0,-9.4 -5.4,-17.9 -13.9,-21.8 l -128.8,-59.5 z"
     id="path1-0" />
  <path
     id="path1-5"
     d="m 735.04222,255.13477 c -9.39998,0 -17.89885,5.39845 -21.79883,13.89843 l -59.5,128.80078 -128.80078,59.5 c -8.5,3.9 -13.90039,12.40081 -13.90039,21.80079 0,9.39998 5.40039,17.89884 13.90039,21.79882 l 128.80078,59.5 59.5,128.80079 c 3.89998,8.49998 12.39885,13.90039 21.79883,13.90039 9.39998,0 17.90078,-5.40041 21.80078,-13.90039 l 59.5,-128.80079 128.80078,-59.5 c 8.49998,-3.89998 13.89844,-12.39884 13.89844,-21.79882 0,-9.39998 -5.39846,-17.90079 -13.89844,-21.80079 l -128.80078,-59.5 -59.5,-128.80078 c -3.9,-8.49998 -12.4008,-13.89843 -21.80078,-13.89843 z" />
</svg>
